<?xml version="1.0" encoding="utf-8"?>
<!-- Generator: Adobe Illustrator 25.0.0, SVG Export Plug-In . SVG Version: 6.00 Build 0)  -->
<svg version="1.1" id="Layer_1" xmlns="http://www.w3.org/2000/svg" xmlns:xlink="http://www.w3.org/1999/xlink" x="0px" y="0px"
	 viewBox="0 0 480.6 41.3" style="enable-background:new 0 0 480.6 41.3;" xml:space="preserve">
<style type="text/css">
	.st0{fill:none;}
	.st1{fill-rule:evenodd;clip-rule:evenodd;fill:#FFFFFF;}
	.st2{fill:#FFFFFF;}
</style>
<desc>Created with Sketch.</desc>
<rect id="Background" x="-142.7" y="-50.8" class="st0" width="584" height="136"/>
<g>
	<g>
		<path id="Shape" class="st1" d="M101.9,11.8c-2.6,0-4.7,0.7-7,1.7C95,7.4,95,2,95.3,0L82.4,2.5v1.1l1.3,0.1
			C85.4,4,86.1,5,86.3,7.4c0.4,4.5,0.3,28.7,0,32.6c3.5,0.8,7.2,1.3,10.9,1.3c10.2,0,16.3-6.2,16.3-16
			C113.6,17.4,108.6,11.8,101.9,11.8z M97.5,39.3c-0.8,0-1.7-0.1-2.2-0.2C95.1,36.4,95,25.2,95,15.5c1.2-0.4,2-0.5,3-0.5
			c4.2,0,6.6,4.8,6.6,10.8C104.6,33.5,101.7,39.3,97.5,39.3z M34,12.1l-2,0.6c-1.7-5.7-4.5-9-9.8-9h-6.7c-0.3,3.6-0.4,9.8-0.4,16.1
			l4.5-0.1c3-0.1,4.3-2.3,5-5.5h1.7v13.5h-1.7c-0.7-3.2-2-5.4-5-5.5L15.1,22c0.1,4.8,0.2,8.9,0.4,11.4c0.3,3.6,1.3,5.2,3.9,5.5
			l2.3,0.2v1.6H0V39l1.8-0.3c2.6-0.3,3.6-2,3.9-5.5c0.5-5.9,0.6-18.1,0-25C5.4,4.7,4.4,3.1,1.8,2.7L0,2.5V0.9h33.8L34,12.1z
			 M44.8,11.5c9.6,0,14.4,6.4,14.4,14.9c0,8.2-5.4,15-15,15s-14.4-6.4-14.4-14.9C29.8,18.2,35.2,11.5,44.8,11.5z M44.3,13.3
			c-4.3,0-5.4,5.6-5.4,13.1c0,7.3,1.9,13.1,5.8,13.1c4.3,0,5.4-5.6,5.4-13.1C50.1,19.2,48.3,13.3,44.3,13.3z M116,26.6
			c0-7.8,5-15.1,14.9-15.1c8.1,0,11.9,5.9,11.9,13.5h-18c-0.2,7,3.4,12.1,10.3,12.1c3,0,4.7-0.8,6.5-2.1l0.8,1
			c-2,2.7-6.1,5.3-11.7,5.3C122.1,41.3,116,35.3,116,26.6z M124.9,23.1l9-0.2c0.1-3.9-0.6-9.5-3.8-9.5
			C126.8,13.4,125,18.6,124.9,23.1z M166,20.3l-1.5,0.4c-1.6-5-4-7.1-7.5-7.1c-2.3,0-4,1.7-4,4.2s1.9,3.8,7.3,5.9c5,1.9,7,4.1,7,8.1
			c0,6-4.7,9.6-12.3,9.6c-3.7,0-7.7-0.8-10.2-1.7l-0.3-8.2l1.5-0.4c2.1,5.8,4.9,7.9,8.4,7.9c3.1,0,4.8-2.2,4.8-4.5
			c0-2.2-1.3-3.6-6.2-5.3c-4.5-1.6-7.9-3.6-7.9-8.6c0-4.9,4.4-9,11.6-9c3.3,0,6.6,0.6,8.7,1.5L166,20.3z M81.2,20
			c-3.9-2.6-8.1-1.5-8.9-0.1C72,24.5,72,31.7,72.3,35.2c0.2,2.4,0.9,3.4,2.7,3.6l2.3,0.1v1.6H59.5V39l1.3-0.1
			c1.8-0.2,2.5-1.3,2.7-3.6c0.3-3.8,0.4-11.9,0-16.5c-0.2-2.4-0.9-3.4-2.7-3.6l-1.3-0.1v-1.1l12.8-2.4l-0.1,6.6
			c3-6.8,8.9-7.7,12.1-5.8L81.2,20z"/>
	</g>
	<g>
		<path class="st2" d="M210.4,3.9v36.8h-2.1l-22.5-32l-1.9-3.1h-0.1l0.1,3.6v31.5h-1.5V3.9h2L207,36l1.9,3.1l-0.1-3.7V3.9H210.4z"/>
		<path class="st2" d="M231.6,41.3c-2.5,0-4.7-0.6-6.7-1.7c-2-1.2-3.5-2.8-4.7-5c-1.2-2.2-1.7-4.8-1.7-7.8c0-3,0.6-5.7,1.7-7.8
			c1.1-2.2,2.7-3.8,4.5-5c1.9-1.2,4-1.7,6.4-1.7c2.5,0,4.6,0.6,6.4,1.7c1.8,1.1,3.1,2.7,4.1,4.7c0.9,2,1.4,4.4,1.4,7.2
			c0,0.1,0,0.3,0,0.5c0,0.2,0,0.3-0.1,0.4h-23.5v-1.4h22.9l-0.7,0.3c0-3.6-1-6.5-2.8-8.8c-1.8-2.2-4.4-3.3-7.7-3.3
			c-2.1,0-4,0.5-5.7,1.6c-1.7,1.1-3,2.6-4,4.5c-1,2-1.5,4.3-1.5,7.1c0,2.8,0.5,5.1,1.5,7.1c1,2,2.3,3.4,4.1,4.5
			c1.7,1,3.7,1.6,5.9,1.6s4.2-0.5,6-1.6c1.7-1,3.1-2.5,4-4.3l1.2,0.7c-0.6,1.4-1.5,2.5-2.6,3.5c-1.1,1-2.4,1.7-3.8,2.3
			C234.8,41,233.3,41.3,231.6,41.3z"/>
		<path class="st2" d="M264,12.9v1.3h-17.8v-1.3H264z M253.4,5.3v28.3c0,2,0.4,3.6,1.3,4.7c0.9,1.1,2.3,1.6,4.1,1.6
			c1,0,1.9-0.2,2.7-0.5c0.8-0.4,1.5-0.9,2.2-1.5l0.7,1.3c-0.6,0.6-1.4,1.2-2.4,1.6c-1,0.4-2.1,0.6-3.3,0.6c-1.5,0-2.7-0.3-3.8-0.8
			c-1.1-0.6-1.9-1.4-2.4-2.5c-0.5-1.1-0.8-2.5-0.8-4.2v-28L253.4,5.3z"/>
		<path class="st2" d="M269.5,40.8V0h1.6v19.6c0.7-2.2,2-4,4-5.3c2-1.4,4.4-2,7.1-2c2.1,0,4,0.4,5.5,1.2c1.6,0.8,2.8,2,3.7,3.5
			c0.9,1.5,1.3,3.4,1.3,5.6v18.2h-1.6V22.9c0-3-0.8-5.3-2.5-6.9c-1.7-1.6-3.9-2.3-6.7-2.3c-2,0-3.8,0.5-5.5,1.4
			c-1.7,0.9-3,2.2-3.9,3.8c-1,1.6-1.5,3.4-1.5,5.4v16.5H269.5z"/>
		<path class="st2" d="M313.2,41.3c-2.5,0-4.7-0.6-6.7-1.7c-2-1.2-3.5-2.8-4.7-5c-1.2-2.2-1.7-4.8-1.7-7.8c0-3,0.6-5.7,1.7-7.8
			c1.1-2.2,2.7-3.8,4.5-5c1.9-1.2,4-1.7,6.4-1.7c2.5,0,4.6,0.6,6.4,1.7c1.8,1.1,3.1,2.7,4.1,4.7c0.9,2,1.4,4.4,1.4,7.2
			c0,0.1,0,0.3,0,0.5c0,0.2,0,0.3-0.1,0.4H301v-1.4h22.9l-0.7,0.3c0-3.6-1-6.5-2.8-8.8c-1.8-2.2-4.4-3.3-7.7-3.3
			c-2.1,0-4,0.5-5.7,1.6c-1.7,1.1-3,2.6-4,4.5c-1,2-1.5,4.3-1.5,7.1c0,2.8,0.5,5.1,1.5,7.1c1,2,2.3,3.4,4.1,4.5
			c1.7,1,3.7,1.6,5.9,1.6s4.2-0.5,6-1.6c1.7-1,3.1-2.5,4-4.3l1.2,0.7c-0.6,1.4-1.5,2.5-2.6,3.5c-1.1,1-2.4,1.7-3.8,2.3
			C316.4,41,314.8,41.3,313.2,41.3z"/>
		<path class="st2" d="M332.2,40.8V12.9h1.4l0.1,6.7c0.7-2.1,1.8-3.9,3.4-5.2c1.6-1.4,3.5-2.1,5.7-2.1c0.9,0,1.7,0.1,2.3,0.3
			c0.6,0.2,1.1,0.5,1.5,0.9l-0.6,1.3c-0.4-0.3-0.8-0.6-1.3-0.8c-0.5-0.2-1.2-0.3-2.2-0.3c-1.6,0-3.1,0.5-4.4,1.5
			c-1.3,1-2.4,2.4-3.2,4c-0.8,1.7-1.2,3.5-1.2,5.5v16H332.2z"/>
		<path class="st2" d="M353.4,0v34.5c0,1.9,0.3,3.3,0.9,4.1c0.6,0.8,1.6,1.2,3,1.2c0.8,0,1.4-0.1,1.9-0.2c0.4-0.1,0.9-0.3,1.5-0.5
			l-0.2,1.4c-0.4,0.2-0.9,0.3-1.5,0.5c-0.6,0.1-1.2,0.2-2,0.2c-1.7,0-3.1-0.5-3.9-1.6c-0.9-1.1-1.3-2.8-1.3-5.1V0H353.4z"/>
		<path class="st2" d="M383.6,22.1c0-2.6-0.7-4.7-2.2-6.2c-1.5-1.5-3.5-2.3-6.2-2.3c-2.3,0-4.2,0.5-5.9,1.5c-1.7,1-2.9,2.6-3.7,4.9
			l-1.2-0.8c0.8-2.3,2.2-4,4-5.1c1.9-1.2,4.2-1.7,6.8-1.7c2,0,3.8,0.4,5.3,1.1c1.5,0.7,2.6,1.8,3.4,3.3c0.8,1.5,1.2,3.2,1.2,5.2
			v14.2c0,2.5,1,3.7,3.1,3.7c0.8,0,1.4-0.1,2-0.4l-0.1,1.3c-0.6,0.3-1.3,0.5-2.2,0.5c-0.7,0-1.3-0.1-2-0.4c-0.7-0.3-1.2-0.8-1.6-1.6
			c-0.4-0.7-0.6-1.8-0.6-3.2v-2.2l0.5-0.2c-0.3,1.7-1,3.2-2.2,4.4c-1.2,1.2-2.5,2-4.1,2.6c-1.6,0.6-3.2,0.8-4.9,0.8
			c-1.8,0-3.4-0.3-4.7-0.8s-2.4-1.3-3.1-2.4c-0.7-1-1.1-2.3-1.1-3.8c0-2.1,0.7-3.7,2.1-4.9c1.4-1.2,3.4-2.1,5.9-2.5l11.9-2.3v1.3
			l-11,2.2c-2.5,0.4-4.3,1.2-5.5,2.2c-1.2,1-1.8,2.4-1.8,4c0,1.8,0.6,3.2,2,4.2c1.3,1,3.2,1.5,5.6,1.5c1.1,0,2.3-0.2,3.5-0.5
			c1.2-0.3,2.3-0.8,3.4-1.5c1.1-0.7,1.9-1.6,2.6-2.7c0.7-1.1,1-2.4,1-3.9V22.1z"/>
		<path class="st2" d="M395.3,40.8V12.9h1.5l0.1,7.5l-0.2-0.3c0.4-1.5,1.2-2.9,2.3-4.1c1.1-1.2,2.4-2.1,3.9-2.8c1.5-0.7,3.3-1,5.2-1
			c2.1,0,4,0.4,5.5,1.2c1.6,0.8,2.8,1.9,3.7,3.4c0.9,1.5,1.3,3.3,1.3,5.6v18.2h-1.6V22.9c0-3-0.8-5.3-2.5-6.9
			c-1.7-1.6-3.9-2.4-6.7-2.4c-2,0-3.8,0.5-5.5,1.4c-1.7,0.9-3,2.2-3.9,3.8c-1,1.6-1.5,3.4-1.5,5.5v16.4H395.3z"/>
		<path class="st2" d="M438.7,41.3c-2.5,0-4.7-0.6-6.6-1.7c-1.9-1.2-3.4-2.8-4.5-5c-1.1-2.2-1.6-4.8-1.6-7.8c0-3,0.5-5.7,1.6-7.8
			c1.1-2.2,2.6-3.8,4.5-5c2-1.2,4.2-1.7,6.7-1.7c2.8,0,5.1,0.8,7.1,2.3c2,1.5,3.3,3.7,4,6.4l-0.2,0.2V0h1.6v40.7h-1.5l-0.1-8.5
			l0.2,0.1c-0.4,1.9-1.1,3.5-2.1,4.9c-1.1,1.3-2.4,2.4-3.9,3.1C442.2,41,440.5,41.3,438.7,41.3z M438.8,39.9c2.1,0,4-0.5,5.6-1.6
			c1.6-1.1,2.9-2.6,3.8-4.6c0.9-2,1.4-4.3,1.4-7c0-2.7-0.5-5-1.4-7c-0.9-2-2.2-3.5-3.8-4.5c-1.6-1.1-3.5-1.6-5.6-1.6
			c-3.5,0-6.2,1.2-8.3,3.5c-2.1,2.3-3.1,5.6-3.1,9.7c0,4.1,1,7.3,3.1,9.6C432.7,38.8,435.4,39.9,438.8,39.9z"/>
		<path class="st2" d="M469.7,41.3c-2.9,0-5.3-0.6-7.4-1.7c-2.1-1.1-3.5-2.8-4.2-5l1.4-0.8c0.6,2,1.8,3.6,3.6,4.6
			c1.8,1,4.1,1.6,6.8,1.6c2.8,0,5-0.6,6.6-1.7c1.6-1.1,2.4-2.6,2.4-4.5c0-1.3-0.4-2.4-1.3-3.3c-0.8-0.9-2.4-1.6-4.7-2l-6.4-1.4
			c-2.6-0.6-4.5-1.4-5.6-2.6c-1.1-1.2-1.7-2.6-1.7-4.3c0-1.5,0.4-2.8,1.3-4c0.9-1.2,2.1-2.1,3.7-2.8c1.6-0.7,3.4-1,5.4-1
			c2.8,0,5.1,0.6,6.9,1.7c1.8,1.1,3,2.8,3.6,5.1l-1.3,0.8c-0.5-2.2-1.6-3.8-3.2-4.8c-1.6-1-3.6-1.5-6-1.5c-1.7,0-3.3,0.3-4.6,0.8
			c-1.3,0.5-2.4,1.3-3.1,2.2c-0.8,0.9-1.1,2-1.1,3.2c0,1.3,0.4,2.4,1.3,3.4c0.9,1,2.4,1.7,4.5,2.2l6.6,1.5c2.6,0.6,4.5,1.4,5.6,2.5
			c1.1,1.1,1.6,2.5,1.6,4.2c0,1.6-0.4,2.9-1.3,4.1c-0.9,1.2-2.1,2.1-3.8,2.7C473.8,41,471.9,41.3,469.7,41.3z"/>
	</g>
</g>
</svg>
